<?xml version="1.0" encoding="UTF-8" standalone="no"?>
<!-- Created with Inkscape (http://www.inkscape.org/) -->

<svg
   xmlns:dc="http://purl.org/dc/elements/1.1/"
   xmlns:cc="http://creativecommons.org/ns#"
   xmlns:rdf="http://www.w3.org/1999/02/22-rdf-syntax-ns#"
   xmlns:svg="http://www.w3.org/2000/svg"
   xmlns="http://www.w3.org/2000/svg"
   xmlns:sodipodi="http://sodipodi.sourceforge.net/DTD/sodipodi-0.dtd"
   xmlns:inkscape="http://www.inkscape.org/namespaces/inkscape"
   width="128px"
   height="128px"
   viewBox="0 0 128 128"
   version="1.1"
   id="SVGRoot"
   inkscape:version="0.92.3 (3ce5693, 2018-03-11)"
   sodipodi:docname="global.goodvibes.goodvibes.svg">
  <sodipodi:namedview
     id="base"
     pagecolor="#ffffff"
     bordercolor="#666666"
     borderopacity="1.0"
     inkscape:pageopacity="0.0"
     inkscape:pageshadow="2"
     inkscape:zoom="8"
     inkscape:cx="83.634627"
     inkscape:cy="46.276129"
     inkscape:document-units="px"
     inkscape:current-layer="g3901"
     showgrid="false"
     inkscape:window-width="3200"
     inkscape:window-height="1674"
     inkscape:window-x="0"
     inkscape:window-y="60"
     inkscape:window-maximized="1"
     inkscape:grid-bbox="true" />
  <defs
     id="defs3786" />
  <metadata
     id="metadata3789">
    <rdf:RDF>
      <cc:Work
         rdf:about="">
        <dc:format>image/svg+xml</dc:format>
        <dc:type
           rdf:resource="http://purl.org/dc/dcmitype/StillImage" />
        <dc:title />
      </cc:Work>
    </rdf:RDF>
  </metadata>
  <g
     id="layer1"
     inkscape:groupmode="layer"
     inkscape:label="Layer 1">
    <g
       id="g3901"
       transform="translate(-136.82516,-6.5407377)">
      <path
         style="fill:#d9e2e7;stroke-width:0.49773437"
         d="m 151.5506,127.89381 c -2.51853,-0.89091 -5.48196,-4.02343 -6.17811,-6.53061 -0.81164,-2.92313 -0.74553,-82.261226 0.0708,-84.993402 0.79011,-2.644355 4.01841,-5.87265 6.66276,-6.662764 2.78731,-0.832828 96.99658,-0.884012 99.98522,-0.05432 2.59698,0.72096 5.94002,4.064004 6.66098,6.660981 0.77518,2.792294 0.77518,82.316995 0,85.109295 -0.72096,2.59697 -4.064,5.94002 -6.66098,6.66098 -3.26941,0.90763 -97.94351,0.72857 -100.5407,-0.19016 z"
         id="path3929"
         inkscape:connector-curvature="0" />
      <path
         style="fill:#abd9f3;stroke-width:0.49773437"
         d="m 152.25905,126.87513 c -2.24675,-0.69222 -3.88735,-1.99118 -4.15714,-3.29147 -0.076,-0.36621 -0.56301,-1.56175 -1.08227,-2.65677 -1.57122,-3.31334 -1.14207,-83.172419 0.46253,-86.073091 2.50916,-4.535837 -0.89082,-4.265694 53.68727,-4.265694 50.81448,0 50.2926,-0.02189 52.1239,2.186264 0.53871,0.649566 0.79294,0.70121 1.08952,0.221326 0.64984,-1.051469 2.36459,0.957342 3.19012,3.737193 1.1038,3.716895 1.10995,80.533312 0.007,84.248202 -0.90769,3.05651 -2.87495,5.00768 -5.99604,5.94699 -3.50827,1.05583 -95.88569,1.00659 -99.32464,-0.0529 z"
         id="path3927"
         inkscape:connector-curvature="0" />
      <path
         style="fill:#cfcfcf;stroke-width:0.49773437"
         d="m 152.20427,126.85916 c -2.07928,-0.63982 -4.78635,-2.96097 -4.17096,-3.57635 0.12631,-0.12631 0.99581,0.24385 1.93222,0.82258 0.93641,0.57874 2.0121,1.04856 2.39042,1.04406 0.37832,-0.004 -0.20145,-0.51187 -1.28837,-1.12748 -4.56373,-2.58482 -4.24582,0.75755 -4.24268,-44.605068 0.003,-42.406654 0.0327,-42.983741 2.34187,-45.432925 2.3435,-2.485568 0.92826,-2.424367 52.81525,-2.283962 48.93821,0.132426 48.93821,0.132426 50.89334,2.228523 1.07532,1.152854 1.95512,2.539513 1.95512,3.081465 0,0.541953 0.22398,1.123796 0.49774,1.292985 0.77988,0.481995 0.5835,-1.528435 -0.33807,-3.461004 -0.98444,-2.064379 -0.57926,-2.796954 0.83771,-1.514613 2.43953,2.207742 2.48676,3.072799 2.48676,45.540968 0,47.412561 0.20157,45.973361 -6.73093,48.059741 -3.55272,1.06921 -95.88882,1.00518 -99.37942,-0.0689 z"
         id="path3925"
         inkscape:connector-curvature="0" />
      <path
         style="fill:#96d8fd;stroke-width:0.49773437"
         d="m 153.14069,126.30723 c -0.49422,-0.13075 -0.80969,-0.49889 -0.70106,-0.81809 0.10864,-0.3192 -0.60028,-1.03174 -1.57537,-1.58342 -4.32819,-2.44875 -4.04249,0.6979 -4.03936,-44.488818 0.003,-42.406654 0.0327,-42.983741 2.34187,-45.432925 2.3435,-2.485568 0.92826,-2.424367 52.81525,-2.283962 48.93821,0.132426 48.93821,0.132426 50.89334,2.228523 1.07532,1.152854 1.95512,2.539513 1.95512,3.081465 0,0.541953 0.22398,1.123796 0.49774,1.292985 0.27375,0.169189 0.49773,-0.04157 0.49773,-0.46836 0,-1.182899 0.93997,-0.924633 1.25173,0.343926 0.91475,3.722146 -0.0246,82.776876 -1.00286,84.400356 -2.47975,4.11523 1.63828,3.81409 -53.25758,3.89456 -26.82788,0.0393 -49.18233,-0.0355 -49.67655,-0.16624 z"
         id="path3923"
         inkscape:connector-curvature="0" />
      <path
         style="fill:#87d2fd;stroke-width:0.49773437"
         d="m 153.15537,126.31006 c -0.48615,-0.1292 -0.82212,-0.53562 -0.7466,-0.90315 0.0755,-0.36754 -0.62604,-1.18993 -1.55901,-1.82753 -4.31714,-2.9504 -4.30445,-2.83821 -3.78277,-33.444445 0.36901,-21.648976 0.36901,-21.648976 3.98791,-21.451948 3.6189,0.197028 3.6189,0.197028 4.95223,-1.726964 5.66075,-8.168473 15.87041,-12.667237 28.64281,-12.621112 29.79544,0.107599 36.59127,0.737602 36.45697,3.379718 -0.18198,3.580059 -0.3007,3.733007 -2.89753,3.733007 -1.64241,0 -2.23981,0.179553 -2.07003,0.622168 0.13127,0.342193 0.51736,1.867679 0.85799,3.38997 0.61933,2.767801 0.61933,2.767801 9.7804,2.737539 9.16108,-0.03026 9.16108,-0.03026 10.46812,-2.270067 0.71887,-1.231893 1.60979,-2.59341 1.97982,-3.025598 1.02405,-1.196086 0.84913,-1.384015 -1.4426,-1.549826 -2.18543,-0.15812 -2.9069,-2.447852 -1.7342,-5.503856 0.48681,-1.268614 17.14113,-1.336075 17.62643,-0.0714 0.99332,2.588557 -0.50415,5.416892 -2.95114,5.573908 -1.30033,0.08344 -2.36423,0.374171 -2.36423,0.646079 0,0.271902 -0.78394,1.719851 -1.74207,3.217663 -0.95814,1.497812 -1.7411,2.774944 -1.7399,2.838067 0.002,0.1416 9.9191,0.353755 10.03815,0.214757 0.0471,-0.05499 0.21508,-6.969207 0.3733,-15.364918 0.2754,-14.614239 0.51374,-16.959837 1.55781,-15.331321 1.07679,1.679545 0.33636,83.168069 -0.77241,85.008109 -2.47975,4.11523 1.63828,3.81409 -53.25758,3.89456 -26.82788,0.0393 -49.17573,-0.0342 -49.66187,-0.16341 z m 100.99593,-4.42074 c 1.2844,-1.96023 0.59527,-1.72465 -1.31176,0.44843 -1.3419,1.52912 -1.48481,1.84831 -0.62216,1.38952 0.61594,-0.32758 1.48621,-1.15466 1.93392,-1.83795 z M 195.60009,68.305047 c 3.38,-0.170384 3.41661,-0.576441 0.34454,-3.821131 -4.09739,-4.327612 -10.71931,-5.228272 -16.52091,-2.247032 -2.78189,1.429513 -6.74854,5.54599 -5.86803,6.089665 0.50556,0.312164 15.71961,0.297322 22.0444,-0.0215 z"
         id="path3921"
         inkscape:connector-curvature="0" />
      <path
         style="fill:#7ccefc;stroke-width:0.49773437"
         d="m 153.16824,126.31253 c -0.98714,-0.2634 -1.1375,-0.93147 -0.32294,-1.43489 0.32333,-0.19983 -0.21878,-0.77318 -1.32198,-1.39814 -3.6033,-2.04128 -3.93476,-2.94786 -4.1142,-11.25279 -0.18483,-8.55461 -0.35675,-8.28593 4.96009,-7.75205 3.01497,0.30273 3.01497,0.30273 1.32544,-1.6711 -7.52422,-8.790353 -4.75821,-28.093418 5.48953,-38.309655 7.7078,-7.684113 13.24544,-9.780443 25.71462,-9.73452 39.32257,0.144821 36.29379,-0.131673 35.96566,3.28326 -0.28135,2.928082 -0.27569,2.921547 -2.82521,3.26351 -1.11763,0.149903 -2.03205,0.464521 -2.03205,0.699143 0,0.234622 1.21042,5.972628 2.68981,12.751123 1.47939,6.778496 2.84107,13.052472 3.02595,13.942172 0.58549,2.817555 0.13693,3.388382 10.07156,-12.81666 9.57291,-15.615007 9.00502,-14.434297 6.94244,-14.434297 -2.86948,0 -3.62509,-1.099744 -2.75377,-4.007931 0.70407,-2.349979 1.06371,-2.449023 8.8926,-2.449023 8.83777,0 9.25191,0.201683 8.31114,4.047497 -0.45707,1.868495 -1.25498,2.372068 -3.83153,2.418093 -1.16663,0.02086 -8.73616,11.892109 -17.59368,27.592104 -0.77951,1.381706 -2.51536,4.335137 -3.85744,6.56319 -1.34207,2.228049 -2.44013,4.192327 -2.44013,4.365066 0,0.172738 -0.57084,1.218348 -1.26854,2.323578 -1.26855,2.00951 -1.26855,2.00951 14.68225,1.85661 8.77295,-0.0841 16.00172,-0.15289 16.06396,-0.15289 0.0622,0 0.23062,-14.93217 0.37421,-33.182602 0.24735,-31.439997 0.41117,-34.997519 1.5312,-33.250527 1.07679,1.679545 0.33636,83.168069 -0.77241,85.008109 -2.47975,4.11523 1.63828,3.81409 -53.25758,3.89456 -26.82788,0.0393 -49.16993,-0.0331 -49.649,-0.16094 z m 99.58845,-2.96938 c 1.22096,-0.79011 2.59604,-3.50806 2.53637,-5.01337 -0.0194,-0.48943 -0.43604,0.005 -0.9295,1.10391 -0.96113,2.13961 -1.90931,3.12819 -4.26155,4.44315 -1.49321,0.83474 -1.49321,0.83474 0,0.52633 0.82126,-0.16963 2.01586,-0.64664 2.65468,-1.06002 z m -45.4231,-19.64754 c 0.28406,-0.45962 -2.77128,-17.045104 -3.07976,-16.718083 -0.0537,0.05689 -0.68358,3.351146 -1.39982,7.320578 -0.71623,3.969432 -1.42727,7.833095 -1.58008,8.585915 -0.2989,1.47248 5.19634,2.20847 6.05966,0.81159 z m -24.09187,-1.24799 c 2.92674,-1.13168 2.77801,-0.89597 3.90189,-6.183907 0.54977,-2.586731 1.11379,-5.207103 1.25337,-5.823049 0.23923,-1.05563 0.0978,-1.119903 -2.46385,-1.119903 -3.19624,0 -3.44396,-0.269722 -2.99533,-3.261394 0.55578,-3.706195 0.55786,-3.706887 11.12434,-3.706887 9.34109,0 9.34109,0 8.39993,-4.355176 -2.82188,-13.058141 -6.86089,-17.545136 -15.79344,-17.545136 -10.067,0 -15.77655,6.172329 -18.69802,20.213535 -3.80454,18.285467 2.19234,26.839107 15.27111,21.781917 z"
         id="path3919"
         inkscape:connector-curvature="0" />
      <path
         style="fill:#b1b5b8;stroke-width:0.49773437"
         d="m 153.14069,126.30723 c -4.56838,-1.20861 1.32385,-1.40773 48.74459,-1.64733 45.82482,-0.23153 49.34899,-0.30955 50.58555,-1.1199 2.70025,-1.76955 2.59014,-0.0546 2.85739,-44.50599 0.13687,-22.767332 0.42903,-41.575205 0.64923,-41.795273 1.20178,-1.201062 1.33239,3.350218 1.21602,42.376204 -0.13845,46.432769 0.13299,43.215759 -3.85619,45.701509 -1.65022,1.02829 -96.50928,1.96629 -100.19659,0.99078 z m 12.84421,-17.25605 c -24.6963,-6.42971 -19.7772,-44.132653 6.90331,-52.91119 4.6019,-1.514136 7.23836,-1.587497 33.1643,-0.922822 14.6598,0.375839 15.05715,0.455192 14.592,2.914174 -0.43428,2.295869 -1.04072,2.81856 -3.27018,2.81856 -1.97797,0 -1.99265,0.01389 -1.70801,1.617637 0.5941,3.347298 6.2809,29.375013 6.45653,29.550639 0.18431,0.184311 18.10752,-29.161535 18.60934,-30.469258 0.20147,-0.525045 -0.20955,-0.700914 -1.65152,-0.706638 -2.94276,-0.0117 -3.407,-0.5064 -2.86941,-3.057792 0.45528,-2.160799 0.45528,-2.160799 8.10149,-2.298506 8.5288,-0.153602 9.31126,0.07283 8.81561,2.551062 -0.43127,2.156374 -1.1851,2.812856 -3.22994,2.812856 -1.82377,0 -1.82377,0 -14.24892,20.637297 -18.19799,30.225571 -15.59968,26.870641 -20.94064,27.038451 -5.67601,0.17833 -5.13303,0.98351 -7.64783,-11.341139 -2.38741,-11.700376 -2.49105,-12.122211 -2.88199,-11.731265 -0.15915,0.159155 -1.09062,4.452517 -2.06992,9.540806 -2.01108,10.449218 -1.60244,10.024088 -12.48184,12.985448 -5.72567,1.55852 -19.25293,2.11447 -23.64238,0.97168 z m 17.6897,-6.07987 c 1.22082,-0.47254 2.37614,-0.99346 2.56738,-1.1576 0.29219,-0.25081 2.87724,-11.534063 2.88501,-12.592545 0.001,-0.191653 -1.28533,-0.415633 -2.85942,-0.497735 -2.86197,-0.14927 -2.86197,-0.14927 -2.76356,-2.30672 0.16404,-3.5962 0.0729,-3.566496 10.94623,-3.566496 8.98842,0 9.6592,-0.0621 9.40883,-0.871035 -0.14828,-0.479069 -0.6126,-2.550888 -1.03184,-4.604043 -0.41923,-2.053154 -0.96125,-4.180968 -1.2045,-4.728476 -0.24325,-0.547508 -0.83682,-2.102236 -1.31905,-3.454949 -3.50018,-9.818333 -17.07596,-12.473925 -25.15173,-4.91999 -8.38007,7.838575 -12.11324,31.626665 -5.87534,37.438149 2.72557,2.53926 9.5516,3.1373 14.39799,1.26144 z"
         id="path3917"
         inkscape:connector-curvature="0" />
      <path
         style="fill:#91b8cd;stroke-width:0.49773437"
         d="m 153.0438,125.15764 c -0.20427,-0.33053 16.04696,-0.498 48.37529,-0.49851 45.35122,-5e-4 48.80214,-0.0603 50.42499,-0.87103 3.65731,-1.82704 3.4825,0.4225 3.48337,-44.824703 4.9e-4,-26.210275 0.17207,-40.364423 0.48691,-40.169835 0.9116,0.563398 0.66953,79.044338 -0.2506,81.246518 -1.03698,2.48185 -2.09498,3.59028 -4.46629,4.67919 -2.30707,1.05941 -97.40708,1.48457 -98.05367,0.43837 z m 12.9411,-16.10646 c -24.6963,-6.42971 -19.7772,-44.132653 6.90331,-52.91119 4.6019,-1.514136 7.23836,-1.587497 33.1643,-0.922822 14.6598,0.375839 15.05715,0.455192 14.592,2.914174 -0.43428,2.295869 -1.04072,2.81856 -3.27018,2.81856 -1.97797,0 -1.99265,0.01389 -1.70801,1.617637 0.5941,3.347298 6.2809,29.375013 6.45653,29.550639 0.18431,0.184311 18.10752,-29.161535 18.60934,-30.469258 0.20147,-0.525045 -0.20955,-0.700914 -1.65152,-0.706638 -2.94276,-0.0117 -3.407,-0.5064 -2.86941,-3.057792 0.45528,-2.160799 0.45528,-2.160799 8.10149,-2.298506 8.5288,-0.153602 9.31126,0.07283 8.81561,2.551062 -0.43127,2.156374 -1.1851,2.812856 -3.22994,2.812856 -1.82377,0 -1.82377,0 -14.24892,20.637297 -18.19799,30.225571 -15.59968,26.870641 -20.94064,27.038451 -5.67601,0.17833 -5.13303,0.98351 -7.64783,-11.341139 -2.38741,-11.700376 -2.49105,-12.122211 -2.88199,-11.731265 -0.15915,0.159155 -1.09062,4.452517 -2.06992,9.540806 -2.01108,10.449218 -1.60244,10.024088 -12.48184,12.985448 -5.72567,1.55852 -19.25293,2.11447 -23.64238,0.97168 z m 17.6897,-6.07987 c 1.22082,-0.47254 2.37614,-0.99346 2.56738,-1.1576 0.29219,-0.25081 2.87724,-11.534063 2.88501,-12.592545 0.001,-0.191653 -1.28533,-0.415633 -2.85942,-0.497735 -2.86197,-0.14927 -2.86197,-0.14927 -2.76356,-2.30672 0.16404,-3.5962 0.0729,-3.566496 10.94623,-3.566496 8.98842,0 9.6592,-0.0621 9.40883,-0.871035 -0.14828,-0.479069 -0.6126,-2.550888 -1.03184,-4.604043 -0.41923,-2.053154 -0.96125,-4.180968 -1.2045,-4.728476 -0.24325,-0.547508 -0.83682,-2.102236 -1.31905,-3.454949 -3.50018,-9.818333 -17.07596,-12.473925 -25.15173,-4.91999 -8.38007,7.838575 -12.11324,31.626665 -5.87534,37.438149 2.72557,2.53926 9.5516,3.1373 14.39799,1.26144 z"
         id="path3915"
         inkscape:connector-curvature="0" />
      <path
         style="fill:#58b2e7;stroke-width:0.49773437"
         d="m 165.9849,109.05118 c -24.6963,-6.42971 -19.7772,-44.132653 6.90331,-52.91119 4.6019,-1.514136 7.23836,-1.587497 33.1643,-0.922822 14.6598,0.375839 15.05715,0.455192 14.592,2.914174 -0.43428,2.295869 -1.04072,2.81856 -3.27018,2.81856 -1.97797,0 -1.99265,0.01389 -1.70801,1.617637 0.5941,3.347298 6.2809,29.375013 6.45653,29.550639 0.18431,0.184311 18.10752,-29.161535 18.60934,-30.469258 0.20147,-0.525045 -0.20955,-0.700914 -1.65152,-0.706638 -2.94276,-0.0117 -3.407,-0.5064 -2.86941,-3.057792 0.45528,-2.160799 0.45528,-2.160799 8.10149,-2.298506 8.5288,-0.153602 9.31126,0.07283 8.81561,2.551062 -0.43127,2.156374 -1.1851,2.812856 -3.22994,2.812856 -1.82377,0 -1.82377,0 -14.24892,20.637297 -18.19799,30.225571 -15.59968,26.870641 -20.94064,27.038451 -5.67601,0.17833 -5.13303,0.98351 -7.64783,-11.341139 -2.38741,-11.700376 -2.49105,-12.122211 -2.88199,-11.731265 -0.15915,0.159155 -1.09062,4.452517 -2.06992,9.540806 -2.01108,10.449218 -1.60244,10.024088 -12.48184,12.985448 -5.72567,1.55852 -19.25293,2.11447 -23.64238,0.97168 z m 17.6897,-6.07987 c 1.22082,-0.47254 2.37614,-0.99346 2.56738,-1.1576 0.29219,-0.25081 2.87724,-11.534063 2.88501,-12.592545 0.001,-0.191653 -1.28533,-0.415633 -2.85942,-0.497735 -2.86197,-0.14927 -2.86197,-0.14927 -2.76356,-2.30672 0.16404,-3.5962 0.0729,-3.566496 10.94623,-3.566496 8.98842,0 9.6592,-0.0621 9.40883,-0.871035 -0.14828,-0.479069 -0.6126,-2.550888 -1.03184,-4.604043 -0.41923,-2.053154 -0.96125,-4.180968 -1.2045,-4.728476 -0.24325,-0.547508 -0.83682,-2.102236 -1.31905,-3.454949 -3.50018,-9.818333 -17.07596,-12.473925 -25.15173,-4.91999 -8.38007,7.838575 -12.11324,31.626665 -5.87534,37.438149 2.72557,2.53926 9.5516,3.1373 14.39799,1.26144 z"
         id="path3913"
         inkscape:connector-curvature="0" />
      <path
         style="fill:#2f94cf;stroke-width:0.49773437"
         d="m 166.09484,108.47915 c -12.71185,-3.20716 -18.1712,-13.806774 -14.61018,-28.366475 3.89175,-15.911945 15.84041,-24.83955 33.16528,-24.779894 24.92053,0.08581 35.59745,0.801884 35.42615,2.375934 -0.23118,2.12439 -0.93846,2.743453 -3.13436,2.743453 -1.55331,0 -1.93,0.181623 -1.93,0.930569 0,0.770363 5.3647,26.586148 6.29527,30.293816 0.48488,1.931906 1.3324,1.237084 3.96043,-3.246866 1.39745,-2.384326 5.59708,-9.365245 9.33252,-15.513156 7.74574,-12.748201 7.60784,-12.357351 4.43194,-12.561526 -2.59842,-0.16705 -3.02136,-0.766964 -2.15225,-3.052884 0.57577,-1.514392 15.18104,-2.171444 15.72427,-0.707395 0.69337,1.868689 -0.54641,3.60632 -2.68475,3.762862 -2.53019,0.185232 -0.86341,-2.250312 -17.9358,26.208129 -14.20845,23.684463 -12.56283,21.651353 -17.53285,21.661333 -4.88441,0.01 -4.19719,1.49453 -8.4051,-18.158985 -1.99273,-9.307245 -3.79439,-17.258552 -4.00369,-17.669571 -0.20931,-0.411014 -0.77541,-1.867205 -1.25801,-3.235975 -4.30782,-12.21805 -22.53132,-13.12848 -29.36537,-1.467062 -4.74576,8.098034 -7.37715,25.559905 -4.73009,31.388907 2.4019,5.289136 10.55324,7.241906 17.60745,4.218126 2.76261,-1.18419 2.96408,-1.57879 4.31508,-8.451521 1.35862,-6.9115 1.48676,-6.451469 -1.84547,-6.625273 -2.86198,-0.149271 -2.86198,-0.149271 -2.73019,-1.891341 0.23596,-3.118983 -0.20011,-2.986406 9.8229,-2.986406 6.93681,0 9.29673,0.155049 9.46965,0.622168 0.12668,0.342192 -0.61168,4.977339 -1.64079,10.300324 -2.11825,10.956469 -1.5519,10.351789 -12.44493,13.287329 -6.07643,1.63753 -18.36914,2.12685 -23.14711,0.92138 z"
         id="path3911"
         inkscape:connector-curvature="0" />
      <path
         style="fill:#0092e6;stroke-width:0.49773437"
         d="m 165.9849,108.05153 c -12.01586,-3.1485 -16.98591,-12.252263 -14.24812,-26.098606 3.33261,-16.854575 15.10595,-26.19788 32.91316,-26.119843 26.87406,0.117772 34.90537,0.649944 34.74497,2.302287 -0.14196,1.462294 -0.30605,1.5873 -2.38779,1.819065 -3.02819,0.337136 -3.05355,-0.263819 0.74061,17.554141 3.39003,15.920138 3.73902,17.042042 4.90645,15.772729 1.51022,-1.642035 19.74771,-32.402567 19.4738,-32.84577 -0.16354,-0.264605 -1.40403,-0.4811 -2.75664,-0.4811 -2.55664,0 -2.72844,-0.189303 -2.14558,-2.364238 0.3199,-1.193694 15.11605,-1.834412 15.11605,-0.654571 0,1.850039 -1.0453,3.018809 -2.69989,3.018809 -2.25255,0 -1.80935,-0.633561 -15.49395,22.14918 -17.16101,28.570437 -14.93854,25.699147 -19.76009,25.528857 -4.52439,-0.15978 -3.58467,2.41036 -9.60712,-26.275459 -3.64734,-17.372756 -7.61283,-22.149179 -18.38875,-22.149179 -12.23883,0 -20.18998,11.50497 -21.0185,30.412859 -0.58251,13.293629 6.85346,18.955499 18.82893,14.336649 3.21496,-1.23998 3.30545,-1.40013 4.71079,-8.337307 1.56854,-7.742771 1.55548,-7.792475 -2.04742,-7.792475 -2.7927,0 -2.7927,0 -2.45185,-1.617636 0.5102,-2.421349 0.4121,-2.398642 9.72995,-2.251935 10.16441,0.160042 9.29847,-1.27079 6.90725,11.413129 -1.7782,9.432254 -1.33624,8.978954 -11.42388,11.716704 -5.74023,1.55788 -19.27008,2.10938 -23.64238,0.96371 z"
         id="path3909"
         inkscape:connector-curvature="0" />
      <path
         style="fill:#0288d6;stroke-width:0.49773437"
         d="m 172.70431,108.2655 c -2.32691,-0.18871 -3.6148,-0.38484 -2.86197,-0.43584 1.79587,-0.12166 1.72796,-0.54767 -0.41577,-2.60819 -3.14014,-3.01827 -3.82781,-4.98328 -0.98404,-2.8119 3.94045,3.00876 10.34194,3.63744 15.75991,1.54777 3.22672,-1.24452 3.3188,-1.40996 4.74352,-8.523609 1.62117,-8.094525 1.56946,-8.286501 -2.10804,-7.827027 -2.76882,0.34594 -3.38501,-0.781697 -1.85121,-3.38772 0.31052,-0.527593 17.46504,-0.466935 17.79251,0.06291 0.14828,0.239923 -0.14532,2.423732 -0.65244,4.85291 -0.50711,2.429182 -1.31727,6.672229 -1.80033,9.428995 -0.87829,5.012301 -0.87829,5.012301 -4.41996,6.343401 -7.95352,2.98924 -15.06344,4.01834 -23.20218,3.3583 z m 37.57448,-1.15073 c -0.12215,-0.3422 -1.13811,-4.98979 -2.2577,-10.327993 -5.8746,-28.010261 -6.15895,-28.948062 -10.06105,-33.181333 -1.10427,-1.197992 -1.88936,-2.296576 -1.74463,-2.441297 0.70215,-0.702159 6.89229,5.757467 9.15119,9.549591 0.57812,0.970518 2.61465,-0.621984 2.66029,-2.080266 0.009,-0.290975 0.6885,-1.172806 1.50976,-1.959625 0.82127,-0.786818 1.49321,-1.724644 1.49321,-2.084058 0,-0.359414 0.18249,-0.653481 0.40555,-0.653481 0.22305,0 0.77103,-0.766436 1.21774,-1.703192 1.1779,-2.470082 0.56597,-2.732701 -7.66488,-3.289452 -3.93161,-0.265944 -8.60425,-0.71398 -10.38365,-0.995638 -9.96805,-1.577832 -18.92658,-0.56672 -25.63332,2.893121 -16.27078,8.393698 -22.17475,33.404318 -10.1324,42.923253 2.80365,2.21616 2.46081,2.64982 -0.57821,0.73137 -12.1836,-7.691164 -8.44837,-33.142592 6.32723,-43.113068 8.46433,-5.711673 10.33498,-5.946771 41.11929,-5.167764 13.84013,0.350228 13.84013,0.350228 13.6877,1.92043 -0.15018,1.546929 -0.18747,1.567744 -2.51654,1.404711 -2.9557,-0.206903 -3.27015,0.407092 -2.19731,4.290366 0.43205,1.563872 2.04357,8.778885 3.58114,16.033363 2.87652,13.571823 3.23704,14.67323 4.39198,13.417495 1.51022,-1.642035 19.74771,-32.402567 19.4738,-32.84577 -0.16354,-0.264605 -1.40403,-0.4811 -2.75664,-0.4811 -2.55664,0 -2.72844,-0.189303 -2.14558,-2.364238 0.3199,-1.193694 15.11605,-1.834412 15.11605,-0.654571 0,1.850039 -1.0453,3.018809 -2.69989,3.018809 -2.25255,0 -1.80935,-0.633561 -15.49395,22.14918 -17.109,28.483847 -14.92424,25.633317 -19.64633,25.633317 -2.75034,0 -4.07017,-0.19445 -4.22285,-0.62216 z"
         id="path3907"
         inkscape:connector-curvature="0" />
      <path
         style="fill:#027cc4;stroke-width:0.49773437"
         d="m 210.27879,107.11477 c -0.12215,-0.3422 -1.13801,-4.98979 -2.25747,-10.327993 -1.11947,-5.338201 -2.68219,-12.72105 -3.47273,-16.406325 -1.30352,-6.07668 -1.46895,-7.637301 -0.73138,-6.899734 0.13935,0.139356 0.92533,3.144427 1.74662,6.677938 0.82128,3.533511 2.59762,11.003374 3.94741,16.59969 1.34979,5.596324 2.34244,10.355904 2.20588,10.576854 -0.37481,0.60648 -1.18762,0.4819 -1.43833,-0.22043 z m -34.78052,-0.89805 c -4.07659,-0.68326 -3.48991,-1.21733 1.33724,-1.21733 8.98804,0 10.38414,-1.03766 11.98281,-8.906365 1.18471,-5.831247 1.5054,-6.739468 2.15152,-6.093349 0.3778,0.377805 -1.15332,10.077574 -1.95276,12.370864 -0.67682,1.94152 -7.3,4.63346 -10.58882,4.30374 -0.27376,-0.0274 -1.59225,-0.23335 -2.92999,-0.45756 z M 222.2095,94.764477 c -0.17985,-0.291005 -0.004,-0.906951 0.39027,-1.368769 0.3945,-0.461823 4.80858,-7.623609 9.80907,-15.915087 9.58911,-15.899995 10.36259,-17.021863 11.01172,-15.971544 0.75054,1.214397 -17.36875,32.763753 -19.22606,33.476474 -1.13894,0.437051 -1.61073,0.384505 -1.985,-0.221074 z M 150.804,89.089544 c 0,-14.782179 8.79477,-27.410262 22.13081,-31.776806 4.71916,-1.545169 16.43784,-2.523085 18.53102,-1.546403 0.55897,0.260818 -2.01897,0.540025 -6.81589,0.738207 -19.8612,0.820545 -32.85047,13.492772 -32.85047,32.048633 0,1.517189 -0.22398,2.758524 -0.49774,2.758524 -0.27375,0 -0.49773,-0.999968 -0.49773,-2.222155 z m 33.60996,-2.879622 c 0.18747,-0.889701 0.5019,-1.791083 0.69873,-2.003068 0.54083,-0.582468 17.46011,-0.20865 17.44471,0.385431 -0.008,0.315698 -2.57557,0.43715 -7.01997,0.332073 -8.14198,-0.192489 -9.02561,-0.04395 -9.79602,1.646929 -0.84244,1.848953 -1.74161,1.604173 -1.32745,-0.361365 z m 18.01961,-14.112846 c -0.19961,-0.199611 -0.34874,-0.941544 -0.33138,-1.648745 0.0316,-1.285812 0.0316,-1.285812 0.51195,-0.08412 0.51769,1.294981 0.41048,2.323917 -0.18057,1.732867 z m 34.48527,-12.764811 c 0.0313,-2.861241 0.0333,-2.861972 8.0515,-2.861972 6.82268,0 7.43031,0.07275 7.27504,0.871035 -0.14978,0.77004 -0.8746,0.875788 -6.25122,0.912023 -4.93929,0.0333 -6.25408,0.196919 -6.99897,0.871035 -1.0846,0.981553 -2.0859,1.081796 -2.07635,0.207879 z M 206.92355,57.59887 c -6.3066,-0.09361 -10.32799,-0.343177 -10.32799,-0.640942 0,-0.304275 4.32023,-0.487635 11.48937,-0.487635 8.96895,0 11.44442,0.136483 11.28447,0.622168 -0.24123,0.732465 0.56719,0.699575 -12.44585,0.506409 z"
         id="path3905"
         inkscape:connector-curvature="0" />
      <path
         style="fill:#0776b7;stroke-width:0.49773437"
         d="m 180.17033,105.23582 c 0,-0.26691 0.44342,-0.48529 0.98539,-0.48529 1.20821,0 5.00858,-1.42996 5.8568,-2.20374 0.34129,-0.31133 1.11044,-3.010907 1.70924,-5.99906 0.5988,-2.988158 1.18113,-5.155806 1.29407,-4.816999 0.26889,0.806679 -1.33465,9.508849 -1.97145,10.698709 -0.82031,1.53278 -7.87405,4.04679 -7.87405,2.80638 z m 43.30289,-12.488411 c 0,-0.850608 17.94107,-30.304304 18.4592,-30.304304 0.90825,0 0.3084,1.116374 -8.525,15.865811 -8.10031,13.525359 -9.9342,16.190767 -9.9342,14.438493 z M 184.4604,85.961054 c 0.44766,-1.872865 0.62425,-2.115371 1.54039,-2.115371 0.71663,0 0.71375,0.08908 -0.0294,0.910227 -0.45306,0.500626 -0.82374,1.284558 -0.82374,1.74207 0,0.457513 -0.22825,0.831844 -0.50722,0.831844 -0.30081,0 -0.37408,-0.556985 -0.18005,-1.36877 z m 52.45844,-26.628789 c 0.0313,-2.859718 0.0376,-2.861972 8.01501,-2.861972 9.53217,0 9.9989,0.91495 0.56411,1.105856 -6.55608,0.132656 -6.86451,0.18557 -7.33517,1.258382 -0.53201,1.21263 -1.25492,1.501883 -1.24395,0.497734 z"
         id="path3903"
         inkscape:connector-curvature="0" />
    </g>
  </g>
</svg>
